<svg xmlns="http://www.w3.org/2000/svg" viewBox="0 0 128 128">
    <defs>
        <g id="logo">
            <path d="M65.46 18.31l-.57-1.14a1 1 0 0 0-1.79 0l-2.75 5.51a386.89 386.89 0 0 1-23.12 39.16 32 32 0 1 0 53-.75c-9.42-13.53-17.39-28.03-24.77-42.78z"/>
        </g>
        <g id="lock">
            <path d="M64 26c21 0 38 17 38 38s-17 38-38 38-38-17-38-38 17-38 38-38m0-10c-26.5 0-48 21.5-48 48s21.5 48 48 48 48-21.5 48-48-21.5-48-48-48z"/>
        </g>
        <g id="move">
            <path d="M45 88L21 64l24-24M83 40l24 24-24 24"/>
            <circle cx="64" cy="64" r="8"/>
        </g>
    </defs>
</svg>
